<?xml version="1.0" encoding="utf-8"?>
<!-- Generator: Adobe Illustrator 19.2.1, SVG Export Plug-In . SVG Version: 6.00 Build 0)  -->
<svg version="1.1" id="Layer_1" xmlns="http://www.w3.org/2000/svg" xmlns:xlink="http://www.w3.org/1999/xlink" x="0px" y="0px"
	 viewBox="0 0 612 160.9" style="enable-background:new 0 0 612 160.9;" xml:space="preserve">
<style type="text/css">
	.st0{fill:#D92827;}
</style>
<path class="st0" d="M319.9,120.3c15.9-0.4,15.9-0.4,22.7,0.8c2,2.5,4.1,5.1,6.3,7.8c4.3,2.7,8.8,5.3,13.3,8c4.7,0,6.3,1.4,24.7,1.8
	c5.9-1.8,5.9-1.8,9.6-5.7c0-2,0-4.3,0-6.5c-3.3-1.6-6.5-3.3-9.8-4.9c-37-6.7-38.6-8.2-41.7-8.2c-3.9-2-8-4.3-11.8-6.3
	c-2.7-2.7-5.1-5.3-7.8-8c-2-5.1-2-5.1-2.9-20.8c1.8-3.9,3.9-8,5.9-12c10.6-9,10.6-9,16.5-12.5c3.1,0,4.7-1.6,21.4-4.3
	c23.5,0.6,47.2,3.7,74.1,3.9c0,9.8,0.2,19.6,0.2,29.2c-7.1,0-14.3,0.2-21.4,0.2c-3.1-3.3-6.1-6.7-9.2-10.2
	c-8.8-4.7-11.8-4.7-13.5-6.3C389.1,65,389.1,65,373,66c-6.1,2.7-6.1,2.7-9.4,5.5c0,2,0.2,4.3,0.6,6.3c4.3,2.5,9,2.5,10.6,4.1
	c15.3,3.1,30.8,6.1,46.1,9.4c4.9,2.9,9.6,5.7,14.5,8.6c2.9,4.1,2.9,4.1,4.7,10.6c0.2,4.1,0.6,8.4,0.8,12.5
	c-1.8,4.7-3.9,9.2-5.9,13.9c-9.2,7.8-9.2,7.8-18,12.5c-3.1,0-4.7,1.6-24.7,4.3c-10.6-0.4-21.2-0.6-31.9-1.2
	c-1.4-1.4-1.4-1.4-17.2-2.2c-8.4,0-16.7,0-25.1,0c0-10,0-20,0-29.8C318.6,120.3,319.3,120.3,319.9,120.3z M461,38.9
	c-4.7,0-9.4,0-14.1,0c0-8.4,0-16.7,0-25.1c22.9,0,45.9,0,69,0c0,0.4,0,1,0,1.4c0,44.5,0,88.8,0,133.3c0,0.4,0,1,0,1.6
	c-22.9,0-45.9,0-69,0c0-8.4,0-16.7,0-25.1c4.1,0,8.4,0,12.5,0c3.3-1,6.5-2.5,9.8-3.7c2.5-6.9,2.5-6.9,2.9-13.7c0-17.6,0-35.3,0-53.3
	c-0.2-2.7-0.4-5.5-0.8-8.6c-1-1.4-1.8-3.1-2.7-4.5C465.9,40.5,463.4,39.7,461,38.9z M26.5,40.3c-4.1,0-8.2,0-12.5,0
	c0-8.8,0-17.8,0-26.5c0.4,0,1,0,1.6,0c158.7,1,158.7,1,164.6,2.2c5.9,4.3,12,8.4,18.2,12.7c1.6,2.7,3.3,5.3,5.1,8.2
	c1.4,7.8,1.4,7.8,0.6,20.4c-2.7,6.5-2.7,6.5-9,15.3c-6.9,4.7-10.2,4.7-11.6,6.1c-3.3,0-4.9,1.6-9.4,1.6c-0.4,0.6-0.8,1.2-1.2,1.8
	c2.5,0.4,4.9,0.8,7.4,1.4c11,6.9,11,6.9,14.7,11c0.8,2.9,1.8,5.7,2.9,8.8c0.8,18,0.8,18,2.5,24.3c2.9,0,5.7,0,8.6,0
	c1.6-3.1,1.6-3.1,2-22.3c5.1,0,10.4,0,15.7,0c-0.4,8.6-0.8,17.6-1.2,26.3c-1.6,3.3-3.5,6.5-5.1,9.8c-3.9,3.1-7.8,6.1-11.8,9.4
	c-10.2,0.4-20.4,1.2-30.8,1.8c-12.7-1.6-12.7-1.6-18.4-3.5c-1-1-2-2-3.3-3.1c-0.8-4.5-1.6-9-2.5-13.5c-1-0.8-2.2-1.4-3.5-2.2
	c-0.4-8.2,1.2-11,1.2-15.7c1.4,0.4,2.9,0.8,4.3,1.2c2.5,3.9,2.5,3.9,7.6,6.5c4.7,0,6.3-1.4,9.4-1.4c1.6-1.6,3.5-3.3,5.3-4.9
	c-2.9,0-5.7,0-8.4,0.2c-2.7-1.6-5.1-3.5-7.6-5.1c-8.2-0.4-8.2-0.4-12.3,1c-1-1.4-2-2.7-3.1-3.9c-2.7-1.2-5.5-2.5-8.6-3.7
	c-2.9-7.1-2.9-7.1-4.7-8.8c-1.4-0.2-2.7-0.4-4.1-0.6c0-3.5-0.2-6.9-0.2-10.4c-0.8-0.4-1.6-1-2.5-1.4c-0.4-4.9-0.4-4.9,1-7.6
	c-0.6-0.6-1.4-1.2-2.2-1.8c-2.5,0-5.1,0-7.8,0c0.4,2.7,0.8,5.3,1.2,8c-2-0.2-3.9-0.6-5.9-1c-1.2-1.8-2.7-3.7-3.9-5.5
	c-1-0.2-2-0.4-3.1-0.8c0.8,2.5,1.4,4.9,2.5,7.1c-9.6-2.5-9.6-2.5-14.3-2.5c-5.5,4.5-8.6,8.8-13.7,11c0.2,1.4,0.4,2.9,0.6,4.3
	c1.2,0.2,2.5,0.8,3.7,1.2c1.4-1.6,1.4-1.6,14.1-3.3c0.4,6.7,0.4,6.7-0.8,9.6c-3.9-0.4-7.8-0.8-11.8-1.2c-1.2,2.5-2.5,4.9-3.9,7.4
	c0,8,0,8,1.2,10.4c0.6-0.2,1.2-0.6,2-0.8c0-3.3,0-6.3,0-9.6c1.8-2,1.8-2,6.9-2.2c5.1,4.7,5.1,4.7,4.9,6.1c-1.2,0.4-2.2,1-3.5,1.6
	c0.2,3.9,0.6,8,0.8,11.8c2,1.8,2,1.8,6.7,3.3c0.2-0.8,0.4-1.6,0.6-2.7c-1.2-0.6-2.5-1.2-3.7-1.8c-1.6-5.5-1.6-5.5-0.6-7.6
	c2-0.4,4.1-0.8,6.1-1c1.8,0.6,3.9,1.2,5.7,2c0,1.4,0,3.1,0,4.5c5.3-0.2,10.4-0.6,15.7-1.2c1.2,2.5,2.2,4.9,3.7,7.1
	c-0.2,1.4-0.4,3.1-0.6,4.5c-2.5,2-5.1,3.9-7.6,5.9c-0.6,1.6-1,3.3-1.6,4.9c0,2,0,4.1,0,6.3c-34.9,0-70,0-105.2,0
	c0-8.8,0-17.8,0-26.7c0.4,0,1,0,1.6,0c5.3-0.2,10.6-0.8,15.9-1.2c2.7-1,5.1-2.2,7.6-3.5c1.8-2.5,3.9-4.9,5.9-7.4
	c0-2.9,0.2-5.5,0.4-8.2c0-15.1,0-30.2,0-45.5c-1.2-7.6-1.2-7.6-4.1-11.8C36.9,42.7,36.9,42.7,26.5,40.3z M276.6,45
	c-1.6-0.2-3.5-0.4-5.3-0.6c-2.9-2-5.7-4.3-8.8-6.3c-1.2-2.7-2.7-5.1-4.3-7.6c0.8-11,0.8-11,2.9-15.9c2.5-2,5.1-4.3,7.8-6.3
	c5.5-0.4,11.2-0.8,16.9-1.2c2,1,4.3,1.8,6.5,2.7c6.3,6.3,6.3,6.3,8.4,11.4c-0.2,3.7-0.4,7.4-0.8,11c-1,1.8-1.8,3.9-2.7,5.9
	c-2.9,2-5.7,4.1-8.6,6.3C284.5,44.6,280.7,44.8,276.6,45z M533,126.7c2-0.2,4.3-0.4,6.3-0.8c0.2-1.2,0.4-2.2,0.6-3.5
	c-6.1-10.6-6.1-10.6-19-26.7c0.2-1,0.4-2,0.8-3.3c12-7.4,12-7.4,13.7-9.6c0-2.2,0-4.7,0-7.1c-2.5-1.4-2.5-1.4-9-2.5
	c0-6.5,0-13.1,0.2-19.8c23.1,0,46.1,0,69,0c0,7.6,0,15.3,0.2,23.1c-11,0.8-12.7,2.2-15.7,2.2c-5.7,3.5-11.2,6.7-16.9,10.4
	c8,10.6,15.9,21.2,23.9,32.1c4.9,3.1,4.9,3.1,15.9,6.1c0.2,6.9,0.4,14.1,0.6,21.2c0,0.4,0,1,0,1.6c-25.5,0-51.3,0-76.8,0
	c0-7.8,0-15.5,0-23.5C528.7,126.7,531,126.7,533,126.7z M243.1,125c3.1-0.2,6.1-0.4,9.4-0.8c1.2-1,2.5-2,3.9-3.1
	c1.8-6.7,1.8-6.7,2.7-27.2c-0.4-3.1-1-6.1-1.6-9.4c-1-1.6-1.8-3.1-3.1-4.7c-1.6-0.8-3.5-1.6-5.1-2.7c-4.7-0.2-9.4-0.6-14.3-0.8
	c0-7.6,0-15.3,0-23.1c22.1,0,44.1-0.2,66.2-0.4c0.4,0,1,0,1.6,0c0,32.3,0,64.7,0,97.2c-23.1,0-45.9,0-69,0c0-8.4,0-16.7,0-25.1
	C236.8,125,239.8,125,243.1,125z M99.6,66.2c-2.9-1.2-2.9-1.2-25.1-30c4.5-0.4,9-0.8,13.3-1.2c5.3,2.2,5.3,2.2,9.8,1.8
	c1.2-1.8,2.5-3.7,3.9-5.5c3.3-0.4,6.5-0.6,9.8-1.2c10.4,6.3,21,12.7,31.4,19c3.1,0,3.1,0,5.5,1.4c2.2-0.6,4.7-1.4,6.9-2.2
	c4.9,2.2,9.6,4.7,14.5,6.9c0,1.8-0.2,3.9-0.6,5.7c-2.9,2.2-2.9,2.2-7.6,2.2c-1.4-1.6-4.7-1.6-20.4-9.4c-3.1,0-3.1,0-4.5-1.6
	c-3.3,0.2-6.7,0.6-10,1c-0.4,3.3-0.6,6.7-1,10.2c-11-0.2-11-0.2-12.7-1.8c-2.7-0.4-5.3-0.8-8-1.4c-1.4,0.6-3.1,1.4-4.5,2
	C100.2,63.6,99.8,64.8,99.6,66.2z"/>
</svg>
