<?xml version="1.0" encoding="utf-8"?>
<!-- Generator: Adobe Illustrator 19.2.1, SVG Export Plug-In . SVG Version: 6.00 Build 0)  -->
<svg version="1.1" id="Layer_1" xmlns:odm="http://product.corel.com/CGS/11/cddns/"
	 xmlns="http://www.w3.org/2000/svg" xmlns:xlink="http://www.w3.org/1999/xlink" x="0px" y="0px" viewBox="0 0 841.9 595.3"
	 style="enable-background:new 0 0 841.9 595.3;" xml:space="preserve">
<style type="text/css">
	.st0{fill:url(#SVGID_1_);stroke:#1F1A17;stroke-width:14;}
	.st1{fill:none;stroke:#1F1A17;stroke-width:3;}
	.st2{fill:url(#SVGID_2_);stroke:#1F1A17;stroke-width:14;}
	.st3{fill:url(#SVGID_3_);stroke:#1F1A17;stroke-width:14;}
	.st4{fill:url(#SVGID_4_);stroke:#1F1A17;stroke-width:14;}
	.st5{fill:url(#SVGID_5_);stroke:#1F1A17;stroke-width:14;}
	.st6{fill:url(#SVGID_6_);stroke:#1F1A17;stroke-width:14;}
	.st7{fill:none;stroke:#1F1A17;stroke-width:28;stroke-dasharray:56,28;}
	.st8{fill:url(#SVGID_7_);stroke:#1F1A17;stroke-width:14;}
	.st9{fill:#1F1A17;}
	.st10{font-family:'MyriadPro-Regular';}
	.st11{font-size:10.0077px;}
	.st12{font-size:9.5037px;}
	.st13{font-size:8.9997px;}
	.st14{font-size:7.4877px;}
	.st15{font-size:7.9917px;}
</style>
<g id="Layer_1_1_">
	
		<linearGradient id="SVGID_1_" gradientUnits="userSpaceOnUse" x1="1829.7239" y1="-2016.5449" x2="3797.7239" y2="-2016.5449" gradientTransform="matrix(7.199757e-02 0 0 -7.199757e-02 106.7669 -46.9617)">
		<stop  offset="0" style="stop-color:#F8C300"/>
		<stop  offset="1" style="stop-color:#FFF500"/>
	</linearGradient>
	<path class="st0" d="M354.1,63.5c-9.3,4.8-0.9-5.5-1.6-5.5c-3.5,0-25.6,0.7-24,0c3.9-1.9,26.1-1.2,24.9-6c-1.7-1.4-7.5-4-16.8-3.4
		c-1.9-1.4-6.3,0.1-10.7,0.3c-4.5,0.3-9.1-0.8-9.7-0.1c-3.7,0.2-5.2,3.2-7.3,4.2c-3.7,1.9-6.6,2.5-6.3,4.3c0,0-13.2-6.4-13.2-1.2
		c0,0.4-9,0.9-14.1,0c-9.4-1.8-5.4,5.5-17.1,8.4c-7.1,3.5,3,2.6,3.9,3.5c0.4,0.4-4.2,6.8-6.1,6.8c-6.5,0-17.3,3.2-6.6,3.2
		c10,0,5.8,5.3-1.8,4c-2.5,2.1-0.1,5.7,5.5,5c21-4.2,23.3,3.2,25.5,4.3c1.9,0.9,6.8,13.2,10.3,16.4c8.4,7.1,5.1,19.4,4.8,29.1
		c-0.3,11.2,6.3,4.1,10.7,9.4c10.2,12,8.9-25.3,19.3-18.9c4.6,2.8-0.1-11.4,25.6-9.1c3.9,0,7.7-9.4-0.4-9.4c-2.9,0-12.2,2.9-6.1-3.2
		c2-1.9-1.9-7-0.4-6.7c7.8,1.3,4.9-4.6,19.8-4.6c3.2,0-0.3-7.4-0.6-7.7c-0.9-1-17.5-4-7.4-6.1c12.5-2.7,12.3-13.6,19-19.4
		C380.2,54.4,361.7,59.5,354.1,63.5z"/>
	<path class="st1" d="M141.1,221.3c0.6,0,11.7,3.1,12.4,3.5c3.3,1.7,17.1-1,18.7,2.8c0.4,0.6,6,2.1,7.4,2.1c3.3,0,11,5.5,12,4.5
		c2.7-2.7-5.3-8.3-3.3-11.4c2.3-3.8,7.7-3.1,7.7-8.4c0-3.1,1.9-7.6,4.7-7.6c4,0,2.7-0.4,2.7-5.9c0-13.5-2.7-8-13.8-10.8
		c-8.7-2.1-24.8,0-34.1,0c-4.4,0-9.4-0.3-13.8-0.3H133l0.4,0.6"/>
	
		<radialGradient id="SVGID_2_" cx="711.8032" cy="-3274.2905" r="1791.96" gradientTransform="matrix(7.199757e-02 0 0 -7.199757e-02 106.7669 -46.9617)" gradientUnits="userSpaceOnUse">
		<stop  offset="0" style="stop-color:#FFF500"/>
		<stop  offset="1" style="stop-color:#F8C300"/>
	</radialGradient>
	<path class="st2" d="M100.1,156.3c-5.5-1.3-9.9-7.1-15.3-8.3l-9-4.5c-1.9,3.7-1.9,6.8-6.8,6.8c-3,0,0.9-5.5,0-5.3
		c-0.4,0.1-4.4,1-6,3.5c-4.1,6,3.2,7.6-7.1,13.9c-5.6,3.4-13.4,6.6-20.2,7.8c-2.1,0.4-2.1,3.7-3.9,3.8c-3.3,0.3-1.4-1.7-2.7-2.7
		c0.6-3.5-1.3-5.5,5.8-5c5.1,0.4,11.5-8.2,15.3-11.4c-9.9,4-9.4-2.1-7.3-7.3c1-2.4-3.1-0.7-6-1.5c-3.7-7.6-1.3-9.7,5.5-9.7
		c9.1,0,6.8-3.7-1.1-3.7c-1.9,0-12.7-0.4-7.8-5.3c0.4-0.4,1.9-3.2,3.5-2.1c1.4,1,3.4-0.6,4.4,1.3c0.7,1.5,8.3,0.4-0.4-3.7
		c-0.7-0.4-8.6-4.9-5.3-6.4c1.5-0.7,7.1-2.2,7.6-2.6c3-3,3-6.8,10.2-6.8c1.5,0,11.3-1.9,11.3,1.1c0,1.5,3,0,3,1.2
		c0,3,2.6-2.2,3.4-2.7c4.1-1.9,1.1,4.9,6.8,4.9c0.3,0,6.5-2,7.7,0.4l14,3.2c5,0,11.1-2,15-3c0,0,11.1-4,12.1-3c6,6,6.5,3.5,16.1,5
		c6,1,14.5,9.1,20.1,6.6c5.5-2.5,11-4,19.6-4c9,0,16.1,10.1,9-4c-3.5-7,2.5-11.5,2.5-11.5c0-0.5-6-5.5-2.5-5.5c3,0,4.6-2.9,8.1-2.9
		c3,0,0.4,6.4,0.4,6.4c-3.5,3.5,9,19.1,9,20.1c0,2.5,9.1-7,9.1-7c14.5,0,3.9,16.9,0.5,16.1l-5.9-1.5l3,4.2
		c-6.9,2-10.6,4.1-13.6,10.4h-3.4v0.9h1.2c-2.9,24.8,17.6,9.6,22.5,30.5c1.8,7.3,7.1,9.1,10.5,2.5c2.7-5-0.4-13.8-0.5-14.8
		c-0.2-1.3,2.3-5.5,1.7-10.9c-0.1-0.6-2.4-1.4-2.6-2.2c-0.7-3.3,0.6-6.9,3.5-6.9c6.1,0,15,4.7,20.9,12.7c1.7,2.4,2.4-8.3,6.2-6.6
		c4.5,2.1,4.8,9.1,8.9,15.2c0.9,1.4,3.5,2.1,5,3c2,1.3,5,1.7,5.5,4.2c0.4,2.5-1.7,7.2,0.4,8.5c9.9,6.1,5.2,10.7-7.5,9.1
		c-1-0.1,3.6-10.6,1.9-10.7c-0.9-0.1-2.2,3-3.5,2.8c-3.5-0.8-16.8,1.9-19.9,4.2c-1.2,0.9,7.8-0.4,9.2,5.5c1,4.4,7.3,0.1,7.3,3.5
		c0,2.1-6.3,5.3-9.6,6.2c-3.2,0.9-3-4.1-5.8-2.6c-3.4,1.8-2.2,7.8-5.5,8.3c-9.1,1.3-8.9,7.8-10.8,15.8c-1.2,5.3-13.3,5.7-12.2,10.4
		c0.9,3.6,2.7,6.7,2.1,11.8c-1.7,4.7-3.1,4.6-4.2-0.1c-1.9-1.7-2.5-4.5-3-8.4l-5.3-1.4c-5.7,2.6-11.6,3.2-17.7,1.7l-5.4,3.5v0.6
		c-6.2,16.7,2.9,28.6,13.8,13.6l6.7-0.5c0,16.3-5.3,10.1-3.7,14.5c5.3-0.6,7.1-2.4,11.8-0.5c-0.1,13.5,3.2,20.2,10.2,12.7
		c2.2-2.3,2.8,4.2,1.4,4.8c-1,0.4-3.1-0.8-3.5,0c-4.4,8.4-16.4-5.1-16.6-10.3c-7,1.1-15-2.7-13.5-6.6c-10.2-1.2-18.5,1.1-25.4-9
		c-1-1.4-0.2-7-3.9-11.9c-9.4-3-7.1-0.1-8.3,4.8c-7.6-5.8-15.7-14.5-23.9-37.9c-5.4-7.8-0.1-15-6.9-28.9c-2.4-5-9.3-6.7-13-10.7
		C111.3,165.7,108.3,158.2,100.1,156.3z M217.4,188.6c-0.4-1.1,1.1-2.2,0.4-3c-0.5-0.5-1.4-1.9-2.4-2.5c-1.2-0.6-2.7-0.5-4.2-0.8
		c-2-0.4-3.4,2.2-3.7,2.9c-0.4,0.7-1.2,0-1.9-0.3c-0.2-0.1-0.6-0.3-0.7-0.1c-0.2,0.4-1,0.4-1.4,1.8c-0.3,0.8-1.4,0.9-1.5,1.4
		c-0.4,1.2,3.2,0.6,4.8,0.1c0.6-0.2,0.2,0.9,1.3,0.6c0.6-0.1,0.6,0.9,0.7,0.7c0.9-0.6,1.9-1.5,2.6-1.4c0.4,0,0.5,0.6,0.7,0.9
		c0.6,0.4,0.7,1.4-0.3,2.2c-0.6,0.5-1.1,3.4-1.4,3.7c0.2,1.9-0.6,4.9,0.4,6.4c1.4,2.1,2.1,2.1,2.6,0.3c0.9-3.6-3-9.9,3.4-9.9
		c1.4,0,0.6,1.4,0.4,2.7s0.2,2.5,1,3c0.3,0.1,0.6,0.1,1.1,0.1c0.6-0.1,0.9-2,1.5-0.1c0.8,0,0.9,1.8,0.6,1.8c-1.2,0-4.7,0.9-3,2.7
		c2.1,2.1,1.4,1.9,5.3,1.9c2.1,0,3.4,0,4.8-1.5c0.6-0.6,1.2-3.5,1.5-3.5c2.5,0,5.5,0.5,8-1.7c1.4-1.3,3.7-3,2.6-3.7
		c-1.4-0.9-4.3-0.7-6.7,1.2c-1.6,1.2-3.5,1.6-3.9,2.4c-1.3,2.6,0.1,1.9-2.4,0.6c-1.6,0.4-3.9,3.2-5.7,0.1c-0.2-1-1.1-3.7-1.1-5
		c0-4,2.5,0.5,2.7,0.8c1.1,1.8,2.6,0.5,1.9-1c-0.3-0.6,0.4-1.4-0.2-2c-2-2.2-5.6-1-8.2-2.2L217.4,188.6z"/>
	<path class="st1" d="M206.3,185c-9-4.5-6-4.5-10-4.5c-3.5,0-1,3-5,3c-19.6,0-41.2,0.5-61.3,0.5h0.5 M143.1,226.6c2,0,7-0.5,8,1.5
		c1.5,3.5,6.6,2.5,10.6,2.5c5,0,11,1,17.1,1c5,0,15.6-1,15.6,4l-0.5-0.5 M242.7,189.9c-2.2,2.7-1.2,2.7-2.7,2.7l0.3,0.7 M82.6,111.2
		v28.2l116.3,2.7 M192.8,183.4c0,5,0,10.8,0,15.8c0,0.9,0,10.9,0,10.9c-0.4,0.4-3.6-0.9-3.6,0.9c0,2.7-3.2,0.5-3.2,4.5v5.4
		c0,0-2.7,1.4,0.9,1.4c0.5,0,0.5,0.4,0.5,0.9c0,0.9-1.9,4-1.4,4.5c0.4,0.4,0.4,4.5,0.4,4 M89.7,139.7c12.8,10.2,8.6,6.4,9.4,7.2
		c0.4,0.4-0.4,0.7,1.1,0.7c0.8,0,2.3,0,3,0c0.8,0,2.3-0.4,2.3,0.8c0,1.1,0,4.5,1.5,4.5c0.7,0,3.4,0.4,3.4,0.8
		c0.4,1.5,1.9,0.7,1.9,2.6c0,1.2,0,3,0,4.5c0,0.4,0,1.9-0.4,1.9c-0.4,0-1.4,1.2-1.4,1.5h0.4 M171.8,141.7l-0.4,41.8 M228.1,178.9
		c0,1.7,0,3.8,0,5.5c0,1.4,0.4,2.6,0.4,4.1c0,1.2,0.4,0.6,0.9,0.6c2.9,0,7,0,9.9,0c0.4,0,1.2,0,1.6,0c0.4,0,1.7,0.9,2.5,1.2
		c0.8,0.3,2,0.3,2-0.3c0-0.3,3.3-1.8,4.5-1.8c0.4,0,2.4-0.9,3.3-1.2c0,0,2.9-0.6,3.2-0.3v3.5c0,0.6,0.9,0.9,1.2,0.9
		c0.9,0.3,0.9,0.9,0.9,1.4l-1.3,4.5"/>
	
		<radialGradient id="SVGID_3_" cx="2472.8584" cy="-5646.2676" r="1174.9333" gradientTransform="matrix(7.199757e-02 0 0 -7.199757e-02 106.7669 -46.9617)" gradientUnits="userSpaceOnUse">
		<stop  offset="0" style="stop-color:#E77817"/>
		<stop  offset="1" style="stop-color:#B7673C"/>
	</radialGradient>
	<path class="st3" d="M221.2,318.5c6,6.3,9,14.3,14.5,19.6c5.9,5.5,14.2,3.4,14.2,11.5c0,21.5-2.7,47.4-10.4,64.9
		c-7.6,17.3,3.7,23.8,11.1,27.4c3.7,1.9,5.7-1.8,8.4-3.8c0.9,1.7-5.3-6-2.2-12.3c1.7-3.4,2.7-4.5,3.1-6c3.3-1.5,1.9-3.3,1.5-5.1
		c-0.5-2.4,5.8,0.4,5.8-7.6c0-12.4,9.2,0,8.6-6.3c-0.8-9.7,15.4-0.2,12.9-7.2c-4.8-13.3,17.4-6.2,17.4-20.3
		c0-8.5,7.6-15.3,18.1-15.3c8.2,0,8.6-14.1,12.5-24.2c2.1-5.3,7.1-7.8,10.4-10.2c11.1-8-14.8-15.6-22.9-15.7
		c-10.2-0.1-17.8-7.8-23-16.5c-2.2-3.7-8.8-1.7-13.3-2.7c-4.5-1-6.8-5.3-8.9-6.4c-3.9-2-14.4-0.9-22.5-3.9
		c-12.1-4.5-26.2-0.3-26.2,10.2l-2.8-2.9c1.2,0,4.4,5.4,2.1,10.4c-1.4,3.2-4,3.2-6,6.6C220.5,307.6,218.3,315.6,221.2,318.5z
		 M260.2,441.3l8.9,3l-5.5,0.9l-0.4-0.2l-1.9-0.2l-0.8,1.1h-0.7l-4.8-0.4l0.2-0.4L260.2,441.3z"/>
	
		<radialGradient id="SVGID_4_" cx="4672.832" cy="-4817.4028" r="1185.0203" gradientTransform="matrix(7.199757e-02 0 0 -7.199757e-02 106.7669 -46.9617)" gradientUnits="userSpaceOnUse">
		<stop  offset="0" style="stop-color:#957F66"/>
		<stop  offset="1" style="stop-color:#4C4840"/>
	</radialGradient>
	<path class="st4" d="M445.5,230c-5.3-3.8-5.4-13.6-29.7-14.8c-3-0.1-7.3,5.1-10.7,4.7c-3.3-0.5-5.8-6.4-8.6-5.2
		c-2.2,1-3.8-1-4.7,1.3c-1.4,3.5-1.6,7.5-4,9.2c-14,10.1-18.1,16.7-20.2,25c-1.2,4.5,4.5,7.8,0.5,10.4c-3.5,2.3-2.4,5.9-1.3,9.6
		c2.6,9.2,8.6,19.9,20.4,24.3c3.4,1.3,6.2-3,10.6-2.3c5.3,0.9,11.8-1.9,17.9-1.9c3.7,0,1.4,6.2,5.9,15c2.6,5.3,9.5,8.6,9.5,14.8
		c0,11.3-3.3,33.3,4,40.6c4.7,4.6,5.3,21.4,8,24c2,2,24.6-4,32-7.4c1.3-0.6,12-27.9,12-27.9c0-13.3,10.7-2,10.7-15.3
		c0-8-5.3-12.6-5.3-22c0-3.3,20.6-26.6,24.6-30.6c13.3-13.3-13.8-4-16-8.6c-1.6-3.4-5.6-7.3-9.5-12.7c-1.3-1.8-2.2-5-3.5-6.8
		c-4.1-5.5-8.4-10.1-8.4-14.4c0-2.7,14.6-10.8-6.6-10c-7.3,0.3-13.8-3.5-18.4-3C451,226.5,448.7,232.3,445.5,230z M519.4,319.9
		c-7.3,2.4,1,2.3-8.5,7.5c-1.8,1,0.5,4.6-2.7,4.6c-2.2,0-4.1-0.4-4.6,0.5c-0.2,0.5-1.9,5.1-1.9,5.1c0,1.7,2.7,2.4,2.7,2.4
		c0,4.1-3.9,4.4-3.9,8.5c0,0.5-2.9,2.9-2.9,2.9c-1.7,5.3,5.3,3.9,5.3,6c0,3.7,1.4,1.9,3.6,1.9c0.5,0,1.7-2.7,4.4-2.7
		c2.4,0,6.6-6,6.6-8.2c0-2.2,0.2-4.6,0.2-7.1c0-4.1,2.7-5.2,2.7-9.3c0-0.6-0.5-1.9-0.7-2.7c-0.4-1.1,0.7-3,0.7-4
		C520.3,324.3,519.9,319.7,519.4,319.9z"/>
	<path class="st1" d="M249.7,361.1c0,0.6,1.9,8,2.5,8.6c0.6,0.5,5.5-1.7,5.5-1.7c0.6,0,2.2,0,2.2,0.6s0.5,1.7,0.5,2.2
		s0.6,1.7,0.6,2.2c0,1.1,1.2,0,1.2,0s3.3-2.8,3.3-1.2s2.2-1.1,2.2,0c0,1.7,0.5,2.2,2.2,2.2c0.6,0,1.2,0,1.7,0l0.9-4.3
		c7.1-0.5,3.2,0.4,4.9,0.4l3.9,0.6c0,0.5-2.1,6-1.9,7.6c0.3,2.1,1.6-3,3.3-0.1c0,0,1.1-8.6,1.6-7c0.6,1.7,1.1-3.3,1.1-3.3
		 M296,289.8c0,3.5-4,2.7-7,4c-2.7,1.2-4.2,4.7-6,4.7c-9.5,0-8.9-1.5-8.8-4.3c0.1-0.8,0.9-4-1-4.8c-1.2-0.5-1,4.1-4.4,1.8
		c-1.3-0.9-3.2,0.1-3.1,2c0,0.6,2.1,1.4,2,2.3c-0.3,3.8-1.7,9.2-1.7,10.4c0,2.1-4-3.1-4.7-2.4c-0.9,0.8-4.2-0.1-4.9,0.9
		c-0.4,0.6,0.8,1.9,0.5,2.5c-0.4,1.2-2.2,1.8-1.9,2.4c0.1,0.1,4.9,3.4,5.2,5.5c0.2,1.7-2.8,1.5-4.2,2.8c-1.4,1.2-0.9,3.9-2.2,4.5
		c-3.8,1.8-1.4,4,0.5,6.8c0.2,0.4-2,0.9-1.8,1.3c1.6,2.7,5.5,5.1,7.9,5.1c1.4,0,8.1,2.9,11,5.1c1.8,1.4-0.2,2.2,1.7,2.9
		c1.2,0.4,3.7,4.8,4.6,4.8c3.3,0,4.2,0.1,6.5,7.6c0.6,2.2-0.7,5-0.3,7.6c0.5,3.4,2.6,6.5,2.6,8.1c0,5-0.6-1.6-0.6,6.8
		c0,5,7.3,6.5,6.8,6.5l0.6,1.2 M221.2,309.7c2.7,0,5.5,1.2,8.3,1.2c1.2,0,3.4,1.1,4.5,1.1c1.7,0,3.3-0.6,3.3,1.1
		c0,1.7,6.1,1.2,7.2,1.2c1.7,0,0.6,1.1,0.6,2.2c0,1.7,9.3,0.9,10.9,0.9"/>
	<path class="st1" d="M434.6,219.7c-3.2,1.9-3.4,6.2-3.4,9.5c0,4.5-0.6,0.2-0.9,5c-0.1,1.6,2.2-1.7,0.6,3.2c-0.2,0.6-3.1,0.3-0.4,3
		c2.1,2.1,7.1,1.9,6.5,2.6c-1.3,1.3,0.6,3.2,0.6,3.2c-1.2,4.2,2.3,3.2,2.7,3.2c1.3,0,2.6-2.6,2.6,0c0,2.7,2.6,0,2.6,1.4
		c0,2.9,1.2,1.7,1.9,2.6c0.9,0.9,11.7,0.6,13.7-3.2c0.5-1-0.4,2-0.2,5c0.1,0.9,1.6,1.9,1.6,2.7c0,0.3,1.5,0.1,2.4,0.9
		c1.5,1.3,2.7,3.7,2.7,3.7c0.6,0,1-2.2,2-3.5c0.6-0.7,1.9-0.6,2-1.3c0.1-0.7-1.4-1.4-1.4-1.8c0-1.3-0.6-3.9,1.3-3.9
		c2.7,0,6.5,2,7.8,0.6c1.2-1.3,0.8-0.1,1.1-0.1c2.4-0.6,3-3.2,4.2-3.2 M467.7,262.2c-1.7,4.4-5,6.6-5.3,7.7c-0.3,1.2,3,2.3,2.1,4.9
		c-1.2,3.2-0.6,15,1.3,16.9c3.9,4,7.8,3.3,15,3.3c2.6,0,2.6,1.3,5.3,1.3c1.3,0-5.3,2.6-7.2,6.5c-1.9,4.6-1.3,22.8-1.9,23.5
		c-1.9,2,3.9,7.8,3.9,11.8c0,4.5-3.2,6.5-3.2,11.7c0,4.5,4.9-1.2,4.9-3.9c0-3.9,3-4,3-5.3c0-0.6,5.8-0.6,6.5-0.6
		c2.6,0,1.9,5.2,1.9,1.9 M427.3,313.3c2.7,0,7.8,0.6,10.4,1.3c1.3,0,1.3,0.6,1.3,2.7v7.8h3.3l0.6-5.8c1.3-1.3,5.2,1.3,5.2,1.3
		c1.3,0,0,3.9,1.3,4.5c0.6,0,4-0.6,4,0.6c0,1.4,1.9,1.4,1.9,2.7s0.6,1.3,1.9,1.3s0.6,1.9,0.6,1.9l4.6-0.6c2.6-1.3,3.9-1.9,6.5-3.2
		c0.6,0,1.3,0,1.9-0.6c0.6-0.7,0-2,1.9-2c0.7,0,3.3,0,4,0 M419.9,300.9c1.3,2.6,0.2-6.6,3.5-6.6c0.6,0,2.6,0,3.2,0
		c2.7,0,0.6-4,1.3-5.3c0-0.6,5.3-0.6,5.9-0.6s1.9,0,2.6,0s0.6-3.2,1.9-3.9c0.6,0,2.7,1.3,3.3,0.6c0,0-0.6-1.3,0.6-1.3s2.6,0,3.2,1.9
		h0.6v-2.6c0-0.6,3.2,0.6,3.9-1.4c0-0.6,5.9-1.3,7.2-1.3s3.7,0,3.9-0.6c0.5-2,0.8-1.9,2.7-1.9"/>
	<g>
		
			<radialGradient id="SVGID_5_" cx="8079.3701" cy="-5617.4854" r="1073.3323" gradientTransform="matrix(7.199757e-02 0 0 -7.199757e-02 106.7669 -46.9617)" gradientUnits="userSpaceOnUse">
			<stop  offset="0" style="stop-color:#BAB3D6"/>
			<stop  offset="1" style="stop-color:#28166F"/>
		</radialGradient>
		<path class="st5" d="M715.7,311c0,0-3-1.7-5.8-4.8c-1.1-1.2-0.3-3.1-3-3.5c-2.2-0.4-2.7-2.3-3.2,0.9c-0.2,1.3-2.1,2.6-2.2,3.8
			c-0.3,2.4,1.7,2.3,2.7,4c1.2,2.3,1.9,6.2,5.6,6.8c0.9,0.1,2.2-1,3.2-0.9c1.9,0.3,3.6,1.9,5,2.2c3.2,0.5-0.7,9.9,1.2,10.2
			c1.2,0.2,1.9,2.3,3.2,2.4c3.7,0.6,6.5,2.7,9.6,0.4c1.1-0.8,10.2-1.7,9.9,0.1c-0.7,4.5,0.6,5.3,5.2,6c0,0,6.9,7.1,7.6,3
			c1.4-8.7-4.2-6.3-6.9-10c-2.7-3.7-0.1-8-4.8-8.7c-3.2-0.5-4.6-3.6-4.1-6.8c0.9-6.5-6.3-2.4-10.1-4.9c-4.2-3-9.5,0.4-12.7-0.1
			L715.7,311z M683.7,323.9c-0.4,0.1-1.5,1.9-1.5,1.9c-1.2,0.2-1.7,1.1-2.8,1.3c-1.8,0.3-4.3,0.8-6.1,1.2c-0.7,0.1-2.6,0.5-2.9,0.9
			c-0.6,0.9-1.8,0.4-1.9,1.5c-0.2,0.8,0.7,5.5,0.7,5.5c-0.6,0.9-2.1,2.7-1.7,4.5c0.1,0.7,0.9,1.4,1.1,2.2c0.1,0.9-0.4,1.8-0.2,2.5
			c0,0,0.8-0.1,0.3,1.4c-0.1,0.4,0.1,0.7,0.1,0.7l2.2-0.4c1.8-0.4,1.1-2.1,0.8-3.5c-0.1-0.4-0.3-1.4,0.1-1.5
			c1.1-0.2,2.9-0.6,3.1,0.5l0.1,0.7c0.1,0.7,0.9,0.9,1.3,0.9c0.7-0.1,0.7-0.1,0.9,0.6c0.2,1.1,1.7,0.8,2.7,0.6
			c0.8-0.1,3-0.2,2.8-1.3c-0.3-1.3-1.7-2.1-2.7-3.2c-0.9-1.2-1.2-2.6-1.2-2.7l-0.1-0.4c-0.1-0.7-1.4-3.1,0.4-3.5
			c1.1-0.2,3.2-0.6,4.3-0.9c1.1-0.2,0.3-2.3-0.1-2.6s-2.2,0.1-3,0.2c-1.4,0.3,0.1-1.5,0.1-1.5c0.6-0.5,3.2-1,4.7-1.3l1.8-0.4
			c0.3-0.4,0.5-1.2,1.2-1.4l2.7-1.7l-0.4-2.2C690.1,322.3,684.7,323.3,683.7,323.9z M634.7,333.6c-3-1.7-13.8-8.6-16.5-9.2
			c-3.5-0.8-7.9,0.1-6.9,5.1c0.9,4.8,4.6,4,7.6,6c2.2,1.5,3.5,4.6,7.1,5.4c0.4-0.1,2.5,5.2,2.7,6.3c0.6,2.9,3.7,1.9,5.5,3
			c1.8,1.2,3.3,3.2,6.2,2.6c0.7-0.1,3.2,3.1,4.8,3.5c0.8,0.3,7.8-2.2,7.6-3.7c-0.4-2.2-1.9-3.8-4.7-4.5c-4-1-3.5-5.2-6.6-7.2
			C640.7,340.3,635.6,334.1,634.7,333.6z M666.4,307c2.4,1,1.2,2.8,4.5,2.2c1.1-0.2,1.9,3.3,2.6,2c0.3-0.4,1.7-2.9,1.5-4.2
			c-0.9-4.8,0.1-0.9-5.2-4.5c-0.3-0.2-3.6-0.6-3.9-0.8c-4.2-2.5-1.9-1.9-6.3,1.3c-1.6,1.2-0.4,3.9-1.5,5.6
			c-1.4,2.2-7.4,7.9-6.7,11.5c0.5,2.9,0.8,5.8-3.5,6.6c-5.5,1.1-4.8,4.8-4,8.4c0.2,1,1.8,2.3,1.8,3.5c0.1,1.4,1.4,3.4,1.7,4.9
			c0.1,0.8,1.1,0.4,1.6,1c1,1.2,2.7,2.9,4.3,3.5c2.4,0.9,4.2-0.6,6.5-1.1c0.4-0.1,1.7,0.9,2,0.9c1.4-0.3,2-1.5,2.7-2.4
			c1.7-1.9,1.1-5,0.9-8c-0.1-1.5,1-3.2,0.9-4.6c-0.1-1.4-1.2-2.6-1.4-3.7s0.9-2.5,1-3.7C665.9,320,667.7,312,666.4,307z
			 M675.8,353.1c-4,0.9-7.7,1.2-11.2,0.9c-1.3-0.1-2.7-0.8-3.9-0.6c-1.2,0.1-2.2,1.2-3.3,1.5c-1.7,0.4-3.2,0.6-4.4,2.7
			c-0.6,0.9-1.6,3.7-1.4,4.4c0.3,1.4,2.6,1.4,3.7,1.2c2.7-0.5,5.4-2,8.3-2.5c0.8-0.1,1.9,0.6,2.9,0.3c0.7-0.2,1.3-1.4,2.2-1.4
			c1.5,0,3.3,0.8,4.9,0.5c2.9-0.6,6.9-1,8.4-3.2c0.4-0.6,1.2-2.4,0.7-2.9c-0.6-0.4-2.5,0.4-2.7,0.3
			C679.3,353.9,676.2,353.4,675.8,353.1z M726.7,352.3c-1-2.2-5-4.1-5.5-5.7c-0.8-2.2,1-4.1,0.9-5.3c-0.4-5.2,1.2-1.9-6-1.1
			c-1.9,0.2-4.4-2.5-7.8-2.5c-6.6,0-4.2,1.9-4.2,7.1c0,4.2-10.4-2.8-15.6,2.4c-2.4,2.4,0,15.6-9.9,15.6c-13.5,0-16.3,5.7-15.5,14.5
			c0.3,3.5,3.2,9.6,3.2,12.9c0,5.4,2.5,11.8,4.8,13.5c6,4.1,9.6-3.7,16.1-8c0.4-0.3,3.8,2.1,8.8,0.6c1.5-0.4,0.2-3.2,2.1-4.7
			c1.4-1.1,6.1-1,6.5-1.4c4.1-5,9.1,4.4,14.7,7.9c0.6,0.4,2.4-1.4,3.2-1.8c0.9-0.5,1.4-3.7,2.4-3.7c2.4,0-1.4,10.4-1.4,10.4
			c-1.9,1.9-0.3,3,0.1,5.1c0.4,2.1-0.4,5,1.4,6.3c1.3,0.9,3-0.9,4.5-0.6c2.6,0.4,4.9,2.2,5.5,0.6s1.6,0.1,2.3,0.1
			c2.2,0.1,4.2,0.4,6.6,0.4c7.8,0,11.7-9.5,15.7-16.6c1.1-1.9,4.4-3.2,5.1-4.7c1.3-2.7-0.2-5,0.3-7.2c1.5-6.3,1.5-12.1-2-14.8
			c-2.9-2.2-6.7-8-10-10.7c-2-1.7-3.8,0.1-5.1-1.9c-2.3-3.6-1.6-8.5-2.7-11.7c-0.3-0.8-2,4.6-3.5,1.4c-1.2-2.9-1-10.7-2-13
			c-1-2.2-3.3,1.3-3.3,6.3c0,3.7,0,10.9-2.8,12.2c-2.8,1.4-1.4,2.4-5.2,2.4c-0.9,0-2.4-5.2-1.4-5.2V352.3z"/>
		<path class="st1" d="M704.3,345.2c0,8.3,0,19.5,0,27.8c1.9-1,4.7-0.6,7.6-0.6c3.7-0.1,7.8-0.5,10.6-0.5c2.4,0,6.8,0.1,8,0
			c1.4,5,0.4,9.8,0.1,14.2c-0.2,4.2,0.1,8.2,0,12c-0.1,2.4-0.4,4.8-0.7,7c-0.4,2.2-0.6,4.4-0.4,6.6c0,0.5,0.8,2.8,0.8,2.2"/>
	</g>
	
		<radialGradient id="SVGID_6_" cx="7282.3228" cy="-3224.9709" r="2349.1506" gradientTransform="matrix(7.199757e-02 0 0 -7.199757e-02 106.7669 -46.9617)" gradientUnits="userSpaceOnUse">
		<stop  offset="0" style="stop-color:#84C225"/>
		<stop  offset="1" style="stop-color:#00923F"/>
	</radialGradient>
	<path class="st6" d="M702.5,168c-3.7-2.8-9.1-2.4-5-5.6c3.8-3,6.3-8.9,12.7-11.3c7.1-2.6,15.6,1.4,21.9,1.5
		c5.3,0.1,8.1-11.7,8.6-10.2c0.1,0.3,6.1,1.9,6,4.6c-0.1,2-6.2,4.9-6.3,6c-0.2,3-4,6.5-4.1,9.1c-0.1,5.8,0.4,14.3,3.8,15.1
		c2.1,0.5,3.1-5,6-8.3c1-1.1,4.5,0.3,5.3-0.6c1.9-2.3-4.6-10.2-1.9-13c2.8-3,6.6-6.5,10.9-7.6c2.2-0.6,4.7,4.3,7.1,4
		c2.4-0.3,3-5.5,5.5-7.1c3.2-2.1,8.3-0.9,11.5-3c1.2-0.7,4,0.1,3.7-1.4c-0.3-1.4-3.7-5-2.7-6c1.8-1.6,3.6-3.2,5.3-4.9
		c1.4-1.4,2.7,4.8,3.9,3.5c1.3-1.4-1.1-4.5-0.3-6.3c0.6-1.4,4.6-0.9,5-2.1c0.9-2.4,0.6-6.1-1.2-7.1c-0.6-0.3-1.9,2.2-2.7,1.8
		c-0.7-0.3-1.6-3.5-2.5-3.5l-20-6.5l-2.6,1.6l-4.5-2.1c-0.8,2.2-0.5,4.5,0.8,6.7l-18.7-1.9l-2.9-4.2c-3.9,0-1.6-1.7-5.3-1.9
		c-3.9-0.1-5.3,1.2-9.1,0.9c-4.1-0.4-5.3-4.9-9.4-5.4c-6.7-0.7-13.6-1.3-20.6-1.7c-2.2-0.1-3.2,4.5-5.5,4.4
		c-2.7-0.1-3.7-1.2-6.3-1.6c-1.6-0.1-1.6,5.2-3.2,5c-4.1-0.5-4.5-11.6-8.9-12.8c-1.8-0.6-7.1-1.1-8.5-0.2c-1.4,0.9,1.1,3-1,3.4
		c-6.8,1.2-14.8-2.5-18.9-2.5c-0.4,0,5.5-11.4-1.7-14.5c-2.7-1.2-7.2,1.3-10.7,0.7c-2.7-0.5-1.3-5-4.1-5.3
		c-2.4-0.2-8.6-0.1-10.7,1.4c-1.6,1.2,0.9,3.8-1.7,4.5c-4,0.9-9.6,0.8-15.3,2.7c-1.4,0.4-2.9,3.5-4.2,3.8
		c-6.7,1.7-12.2,1.2-12.2,5.9c0,3.6-10.2,4.3-8.2,5c1.2,0.5,4.8,2.9,6.1,4.4c0.4,0.6,1.1,5.8-0.7,7.1c-1.1,0.9-3-5.8-4.5-5.8
		l-2.9-0.7c-2,0-4.2-5-5.8-4.5c-3,0.9-7.3,2.2-8.6,4.9c-1.7,3.4,0.3,8.1,1.6,8.1c2.4,0,5.3,1.2,7.3,4.6c1.4,2.2,5.4,5,3.4,6.3
		c-0.9,0.6-4,3.7-6,2.9c-1.5-0.7,2.1-5.6,0.7-6.2c-1.9-0.8-2-3.4-3.5-3.9c-1.9-0.6-2.4,5.7-3.8,6.2c-3.7,1.4-8.8,5.5-10.2,3.4
		c-0.8-1.2,5.3-2.4,6-5.7c0.6-2.4,1.6-5.5,1.4-8.9c-0.2-4.2-1.4-8.9,0.6-12.9c0.3-0.6-1.7-4.5-5.3-1.4c-1.7,1.4-7.6,7.3-7.6,12.2
		c0,3,6.7,5.7,4.8,7c-2.5,1.8-4,12.7-7.3,12.7c-1.6,0-2.3,5.4-0.8,10.5c1.4,4.5,5,8.9,4.2,9.3c-3.4,1.5-1.2,5.3-2.1,6.9
		c-1.4,2.7,1.2,14.7-2,16.9c-5.3,3.7-17.1-2.8-20.7-0.5c-4.3,2.7-16.6-2.8-19.6,6c-0.6,1.8-2.2,6.3-0.6,9.4c2,4,2.2,8.1,3.2,10
		c1-5-0.1-7.6,1.1-9.6c0.9-1.5,5.8-2.3,5.5-0.4c-0.2,1.7,4.1,4.4,3.5,6.4c-0.6,2.1,0.3,3.9,0.8,5.4c1.2,3.5,3.2,6,3.2,9.4
		c0,9.9-10.4,1.8-10.4-1l-14.1-5.8c-7.4,0-4.3,1.2-8.4,1.2c-2.7,0-3.5-2.3-7.7-3.3l-4.7,1.2l-3.7,0.7c-9.3,1.8-8.5-1-9.8,2.2
		c-1.7,4.4,0.5,4,0.7,5.2c0.4,2.6-4.5,4.9,20.7,4.9c0.7,0-2.7,8.1-3.2,13.4c-0.5,4.6,1.9,6.3,2.2,6.8c9.9,12.3,15,33.8,16.8,37.7
		c1,2.3,5.7-2,7.8-2.7c4.9-1.5,8.9-3.5,13.4-6.3c8.2-5.1,15.4-11.1,12.7-15c-0.7-1-3.8-1.4-6.2-3.1c-1.1-0.8-0.9-3.5-2.4-3.8
		c-0.6-0.1-1.7,3.4-2.4,3.3c-0.4-0.1-6.6,1.2-7.7-3.5c-0.6-2.6-9.1-9.5-3.3-10.4c0.1-0.8,3.1,2.2,5.4,5.9c3.2,5.1,8.8,3.2,10.2,1.4
		c0,4.5,12.2,8.4,20.7,4.9c4.2,0.1,6.4,10.7,12.3,12.2c-0.3,1.7,1.9,3.9,3,6.5c1.2,2.6,1.2,5.5,2.6,8.4c0.9,1.7,1.2,4.9,2.2,6.6
		c4,7,9,11.1,13.1,10.2c2.5-0.5,2.7-9.9,0.5-12.3c-2.7-3.1,0.5-6.4,0.6-10c-1.2-2.2,8.4-12.5,16.6-14.1c0,0,2.7,2.7,5.9,5.5
		c1.4,1.3,0.9,9.9,2.5,8.9c6.7-4.4,6.3-2.2,7.1,6.9c0.1,1.1-0.4,3.7-0.3,4.7c0.4,6.6,5.9,14,7,14.8c6.6,5.2-9.7-23.8,1-18.4
		c6.9,3.5,7.3,9.9,8.9,7.5c1.2-1.7,2.6,0.4,3.5-3.3c0.8-3.2,3,2.4,4.3-1.9c0.9-2.9,1.1-6.1-0.6-10.1c-2-4.8-10.2-8.4-7.1-8.4
		c2.5-0.1,3.5-4.9,6.2-5.2c1.2-0.1,1.5,1.7,0.9,3.7c-0.7,2.4-2.5,4.9-1.1,4.7c3.9-0.6,3.2-5.9,7.6-8c11.4-5.3,21.4-9.1,21.4-18.7
		c0-3,0.3-8.2-0.7-10.4c-1.2-2.5-3.7-2-3.9-4c-0.1-2.3,5.9-3.7,6-5.3c0.1-2.7-8.7-3.3-9.1-4.3c-0.7-1.7,1.9-3.3,5-3.2
		c0.7,0.1,0.3,2.4,1.2,2.4c0.9-0.1,1.9-1.3,3.1-1.9c1.5-0.7,2.4,1.3,4.2,1.7c0.9,0.2-2.1,3.6-1.3,3.7c1.6,0.4,2.9,0.6,4,0.9
		c3,0.6-2.9,9.2-1.7,9c1-0.1,4.9,0,6.5-1.9c0.8-1,2.7-4.2,2-7.1c-0.5-2.2-3.8-4.1-3.2-5.3c1.6-3.7,5.5-5.4,7.9-8
		c3.4-3.5,9.5-0.5,10.9-5c1.7-5.2,10.3-13.2,8.1-23.3C704.8,170.1,703.8,168.8,702.5,168 M716.7,248.3c-2.5,0-5.5,0.4-8.1,0.7
		c-0.7,0,0.4,2.2-1.4,2.2c-0.8,0-6.3,0-6.3,0c-0.4-0.4-1.5-0.4-1.9,0s-1.1,1.1-1.1,1.8c0,0.4,4.8,0.8,5.5,0.8c0.4,0,1.9,0,2.2,0
		s1.9,0,1.9,0.4c0,1.1,1.1,0.4,1.1,1.1c0,1.1,0,3,0.7,3.3c0,0,0.7,0.4,1.1,0.4c0.4,0,2.2,0.7,2.6,0.7c2.2,0,0.4,0.7,1.2,1.5h2.2
		c1.5,0,0.4-3.3,0.4-3.3c-0.4-0.7-1.8-2.2-1.4-3c0,0,1.8-0.7,2.2-0.7c0.7,0,1.1,0,1.1-0.8c0-0.7,0-2.2,0-2.9
		C718.6,249.4,717.1,249.4,716.7,248.3z M734.9,209.2c-0.3-1.9-3.1-0.2-4.9-0.8c-1.7-0.6-2.4-3.3-4.2-3.3c-2.7,0-2.5,7.8-2.5,10.1
		c0,1.7,0.4,7.3-0.9,7.3c-1.7,0-4,2.7-4,4.7c0,5.3-3.3,0.6-4.6,3.6c-0.4,0.6,0,5.6,0,6.6c0,0.6-8.6,7-6.6,8.9c1,1-1.7,1.7,2,1.7
		c3.6,0,5.9-2.3,8.6-2.3c1.4,0,3.7-0.3,3.7,1c0,2.7,4.6,5.6,6,3c0.6-1.7-2,0-2-0.9c0-1.4-1.3-5.7-0.6-7.3c0.6-1.3,3.3-3.3,5-3.3
		c0.6,0,2.3,1,4.3,1c1.7,0-0.4-7.6-0.4-7.6c0-0.6,3-3,3-5.9c0-2.7,0.4-3.3,2.4-4.3c1.4-0.7,3.1-7.1,2.6-9.6c-0.3-1.2-0.3-5-1.1-5.3
		C739,205.5,736.4,208.8,734.9,209.2z M741.2,185.3c-2,0-4.3,0.4-6.3,0.4c-0.9,0-6.9-7.6-6.9-2c0,1,0,3.7,1,4c1.3,0.7,5,2.4,5,4.7
		v0.6c0,1.3-1.7,1-2.7,1c-1.7,0-3,1.9-3,3.6c0,0.7,0,2,0,2.7v1c0,0.6,0.7,0.4,0.7,0.4v0.9c0,1,2-0.6,2-0.6c0-1,0.2-2.7,1-2.1
		c1.5,1.1,3.7,0.6,5.3-2.5c0.8-1.7,0.3-4.3,3.3-4.3c1.3,0,3,0,4.2,0c1,0,2-1,2-2c0-0.6,0-1.7,0-2.3c0-1.3-1.7-1.7-2.3-2.3
		C743.9,185.7,742.8,185.3,741.2,185.3z"/>
	<path class="st1" d="M521.7,212.8c17.9,3.3,13.9,0.1,13.9,4c0,2.7,2.7,0.6,3.3,1.4v4c0,1.3,1.4,1.9,1.4,2.7c0,1.9,3.2,1.3,4,2.6
		c0.6,2,2.6,1.4,2.6,4c0,2,0,5.3,0,7.3c0,2.6,4.7,1.9,4.7,5.9l-0.6,0.7"/>
	<path class="st1" d="M546.8,173.7c2,0,7.3-0.6,7.3,1.4c0,6,3.3,10.6,10.6,10.6c0.6,0,0.6,7.9,5.3,7.9c4.7,0,6,0.6,8.6,3.3
		c1.3,1.4,4.6,3.3-0.6,3.3c-6.6,0-2.7,10.6-4.7,12.6c-2.6,2.7-2.6,5.3-2.6,9.9c0,0,1.7,2-3.7,2c-1.3,0-4.6-7.8-4.6-5.8
		c0,1.5-2.4,0.2-3.1,0.8c-0.9,0.9-0.6,3-3,3c-2.7,0-5.3,0-5.3,2.7l-1.9,0.7l-1,1.7l-3.5,0.4"/>
	<path class="st1" d="M573.9,211.8c3.1,0,1,3.5,3.1,3.5c1.2,0,2.5-1.2,4.3-1.2c1.3,0,0.7,2.2,0.7,3.3c0,2.7,4.1,0.5,4.1,4.5
		c0,0.6,1.3,1.5,1.3,2.4c-0.1,1.9-1.4,4.2-0.5,5c1.9,1.9,1.5,0.2,3.7,0.1c0.5-0.1,1.1,1.4,1.9,1.4c3.3,0,3.4,7.1,5.6,6.6
		c0.9-0.2,3.3-0.3,5.3-0.6c0.9-0.2,1.5-1.8,2.4-1.2c0.5,0.4,1,0.9,1.5,1.8c0.4,0.8,1.6,0.4,2,0.9c1.1,0.8,0.4,2.1-0.8,4.5
		c-1.3,2.8-9.9,8.4-9.9,9.1v0.5"/>
	<path class="st1" d="M609.9,239.2c1.2-0.6,2.4-1.5,3.3-1.8c1.2-0.6,2.4,0.9,3,1.5c0.6,0.6,2.4-0.9,2.4-0.9c1.8,0,3.6-0.9,3.6,1.5
		c0,0.9-0.3,4.8,0.9,4.8s1.5,2.1,1.8,3c0.3,0.6,2.4,4.2,2.4,2.4c0-0.9,3-0.9,3-3.3c0-1.8,7.2-2.1,9.4-1.5v1.2c0,2.4,2.7,2.1,2.7,3.3
		c0,1.8,1.2,3.3,1.2,3.6v0.3"/>
	<path class="st1" d="M581.3,199.6c0-14.5,5.3-5.3,8.6-12c2-4.6,5.3-5.3,12-5.3c4.6,0-6-5.3,4-5.3c4,0,6.6,2.2,7.4,6
		c0.4,1.9-0.6,4.2-0.6,6.1c0,2.4,1.1,4.4,1.9,4.4c5.9,0,1.3,8,9.9,8c1.3,0,1.3,5.9,7.9,5.9c7.9,0,9.9,5.3,14.5,7.3
		c2.7,1.3,15.9,6.6,14.6,6.6h1.9"/>
	<path class="st1" d="M731.5,108.2c-0.4,2.4-7.6,2.4-9.1,3.8c-0.5,0.5-0.3,3.7-0.9,3.7c-4,0-0.3,3.9,3.4,4.4c3.4,0.5,0.9,1,1.4,1.4
		c5.8,6.8,2.7,11.4-3.8,13c-2.2,0.5-3.3-7.9-8.1-2.4c-3.5,4-9.9,2.4-11.2,1.2c-2.9-2.7-6.6,4-7.9,4.7c-1.4,0.6-2.7,6-4,7.3
		c-3.3,3.3-5.9,3.3-5.9,11.9c0,6.4,2.2,9.5,2.7,15.4c0.1,1,3.3,2.4,3.2,4c-0.1,1.4-1.4,2.7-1.5,4.1c-0.1,1.1,1.2,2.3,0.9,3
		c-1,2.3-3.1,3-3.7,3.2c-2.5,1.1-1.7,2.9-2.1,4.6c-0.6,3-0.5,6,7.1,6h0.6"/>
	<path class="st1" d="M616.4,194.3c0-2.2,1.7-7.6,1.7-8.1c0-2.2-1.2-3.9-1.2-5.5s1.7-3.9,1.7-5.5c0-3.5,2.2-1.3,4.6,0.1
		c1.4,0.9,3.3,0.6,3.7,1.1c1.4,1.4,3.4,3.3,5.5,3.6c2.1,0.4,4.2-0.9,6.7-0.9c0,0,1.3,1.7,3,1.9c2.1,0.2,5-1.2,7.9-0.8
		c3.1,0.4,6.8,1.9,6.8,0.5c0-0.5,2.7,1.7,5.2,2.9c3.1,1.5,5.4,0.6,5.4,0.6c0.6-0.6-3-9.9-1.9-9.9c3.8,0,7.2,0.4,7.2-4
		c0-0.5,6.6-1.1,6.6-1.1c4.4,0,0.6,8.3,2.7,9.4c2.2,1.2,2.8,0.6,2.8,3.9c0,2.2-0.6,3.9,2.2,3.9l1.2,0.2"/>
	<path class="st1" d="M697.6,135.6c-7.1-3.9-10.7-3.7-13.4-3c-3.7,1.1-0.6,4.5-3.9,4.5c-4.2,0-5.8,4.9-8.3,7.3
		c-2.4,2.4-6.9,1.1-8.1,4c-1.8,4-6.3,5.3-10,5.3c-12.7,0-14.9,4.4-25.9-1.2c-2.2-1.1,0.8,1.7-1.7,2.7c-2.5,0.9-10.5,0.1-10.5,2.9
		c0,0.8,4.9,1.9,4.9,3.1c-0.1,0.6-2.1,3.1-1.9,5.8c0.1,1.4,1.6,2.6,2,3.8c0.6,1.7,0.2,3-0.1,3"/>
	<path class="st1" d="M668.8,99c0,3.3,1.9,3.7,1.9,7c0,3.3-9.5,8-5.6,9.6c3.9,1.7-3.5,5.5-6.8,5.5c-4.1,0-3.7,0.3-4.3,2.8
		c-0.2,0.8-2.5,1.5-2.5,3c0,0.7,2,1.9,4.5,2.1c1.5,0.1,3.2-1,4.6-1.2c1.4-0.2,2.4,0.4,2.7,0.4c1.1,0,0.2,4,0,4.4
		c-0.6,1.3-5.8,2.9-0.9,5.3c0.7,0.4,1.6,2.2,1.2,3c-0.9,1.8-3,2.7-4.6,4.5c-2.6,2.9-2.8,6.8-2.4,8.3"/>
	<path class="st1" d="M607.6,177.3c0-1.7,0-3.2,0-4.9c0-2.7-3.3-3.3-3.3-7.7c0-5-0.6-4.5-3.3-7.2c-2.2-2.2-6.6-7.7-9.4-7.7
		c-4.4,0-1.7-6.6-3.9-7.7c-5.5-2.8-0.5-9.9-3.3-12.7c-0.5-0.5-2.2-5.5-2.7-5.5c-3.3,0-5-1.1-7.2-1.1l1.7,2.2"/>
	<path class="st7" d="M283.8,100.1L225.7,115"/>
	<path class="st7" d="M204.1,157.5l79.6-57l-16.3,54.8"/>
	<path class="st7" d="M363.3,93.7l20.3,20.9"/>
	<path class="st7" d="M393.9,148.5l2.8-18.6l20.3,10.7L393.9,148.5z"/>
	<path class="st7" d="M393.3,148.5l24.3,20.3"/>
	<path class="st7" d="M395.5,175.5l5.6,5.6"/>
	<path class="st7" d="M416.4,140.5l1.2,27.1"/>
	<path class="st7" d="M800,122h38.8"/>
	<path class="st7" d="M31.9,128.3H2.6"/>
	<path class="st7" d="M346.4,314.4l31.6-26.2"/>
	<path class="st7" d="M500,300.9l11.7,26.2"/>
	<path class="st7" d="M482.9,364.2l17.1-7.3"/>
	<path class="st7" d="M635.6,278.3l18.1,34.3"/>
	<path class="st7" d="M675.3,310.8l27.1-2.7"/>
	<path class="st7" d="M716.9,318.1l-24.4,26.2"/>
	<path class="st7" d="M729.5,332.5l0.9,22.6"/>
	<path class="st7" d="M680.7,356.9l3.7,4.5"/>
	<path class="st7" d="M680.7,213.3l43.4-5.5l-19.9-26.2"/>
	
		<radialGradient id="SVGID_7_" cx="4930.8145" cy="-2899.2678" r="1261.9335" gradientTransform="matrix(7.199757e-02 0 0 -7.199757e-02 106.7669 -46.9617)" gradientUnits="userSpaceOnUse">
		<stop  offset="0" style="stop-color:#75C5F0"/>
		<stop  offset="1" style="stop-color:#007CC3"/>
	</radialGradient>
	<path class="st8" d="M544.2,113.5c-0.9,0-2.9-0.5-4.8,0.7c-0.9,0.6,0.5,3.2-2.4,3.4c-4.8,0.3-11.2-1.3-13.2-0.4
		c-1.3,0.6-2.4,0.1-3.5,0.6c-0.6,0.4-1,2.1-2.2,2.1c-7.8,0-3.1,4.5-9.1,4.5c-1.5,0-2.4-1.6-1.6-3c0.4-0.6-0.5-1.9,1.3-1.9
		c0.4,0-2-3-4.9-1.7c-1,0.4-1.9,2.2-1.7,4.3c0.1,1.4,1.7,2.8,0.9,4c-1.3,1.9-7.1,0.1-8.3,2.6c-1.8,3.7-6,6.4-9.6,4.7
		c-1-0.5-1.7-4.9-2.5-5.4c-1.8-1.1-3.8-0.4-4-1.4c-0.1-1.1,1.1-1.9,4.4-1.9c7.1,0,11.2,2,12.2,0.2c1-2-1.5-3.7-4.9-6.6
		c-3.5-2.9-6.9-4.7-11.2-4.7c-1.2,0-3.7-0.3-6.1-1.8c-3-1.9-6.1-5.1-8.4-4.6c-2.7,0.5-4.7,3.1-7.3,4.2c-2,0.8-4.8-0.1-6.7,1.2
		c-0.9,0.6-0.3,2.5-1.2,3.1c-1.4,0.8-4.7,0.6-6,1.5c-3.5,2-6.6,5.3-8.9,8.5c-0.8,1.1,0.1,3-2.1,3.2c-2.1,0.3-2.2,3.5-3.8,5
		c-3.5,3.5-8.4,3.9-11.2,6.5c-1.7,1.6,0.2,3.7,0.1,5.7c-0.2,3.7,0,8.7,1.8,9.2c1.9,0.5,4.5-2,7.2-3c2.2-0.9,4.4-1,5.7,0.1
		c0.8,0.6,1.3,1.7,1.3,3.5c0,9.6-0.9,13.2,9.1,3.3c6-6,1.2-11.7,1.2-16.3c0-0.2,2.4-2.2,5.3-6c1.6-1.9,3.3-5.7,5-7.3
		c1.9-1.9,3.2-1.8,4.7-1.6c1.4,0.1,2.9,0.4,2.9,2.5c0,0.3-5.6,2.2-8.4,7.6c-2.1,4-1.1,11,1.1,11c4.5,0,6.6-1.7,10.5-1.7
		c2.2,0-3.8,0.7-7.5,4.3c-1.1,1,2.3,4.8,1.7,6.1c-0.8,1.4-4.2-2.4-5.4-1.6c-1.7,1.1-1.2,6.8-1.2,7.6c0.2,3.3-3.5,0.6-8.1,0.9
		c-1.7,0.1-4.8,3-6.6,3c-2,0-3.6-1.3-5.6-0.6c-4.8,1.7-7.6-3.7-2.8-6c1.7-0.9,0.4-2.2-0.6-3.3c-2.2-2.4-7.3-3.7-7.3,3.6
		c0,0.9,2.5,4.3,1.4,5.7c-1.7,2.2-8.9-1.2-7.7,7.7c0.2,1.8-2.7,1-4.4,1.7c-2.5,0.9-4.4,2.7-5.9,2.7c-1.8,0-6.5,3-7.7,3.2
		c-7.6,0.9-2.4,2.2,1.7,5.6c0.6,0.5,0.6,2.4,2.6,1.9c1.9-0.6,3.3,2.4,3.6,3.7c0.1,0.6-2.4,1.3-2.6,1.9c-0.4,1.7-1.6,0.9-2.2,1.5
		c-1.9,1.9-4,1.9-7.2,1.6c-1.4-0.1-3-1.3-4.6,0.2c-0.9,0.9-3.5,0.9-4.4,2.7c-0.3,0.5-4-0.6-0.7,1.5c1.8,1.2-3.2,6.4-1.8,7.3
		c0.9,0.6,3.7,1.9,4.4,3.1c0.6,1.2-1,2.3-0.3,2.7c6.4,3,11.2-1.4,15.6-1.4c0.2,0,1.7-2.7,5.1-4.9c2-1.3,5.9-1.5,7.6-3.3
		c2.7-2.9,1.9-7.7,3.8-8.3c10.2-3.3,13.5,2.4,18.4,7.2c3.1,3.1,1.1,5.6-1.5,7.4c-0.7,0.5-6.6-0.8-5.3,0.9c1.4,1.6-1.2,5.1,5.3,5.1
		c4.2,0,8.7-3.2,8.7-7.8c0-4.5,8.4-2.4-2.7-8.2c-0.8-0.4-0.9-2.2-1.9-2.6c-3.6-1.8-6.5-6-5.8-7c0.5-0.7,2.2,1,5.9,2.9
		c0.7,0.4,2.4,0.4,3.2,0.8c1.3,0.6,2,2.4,2.9,3.1c1.2,1.1,2.5,1.2,2.9,2.5c0.4,1.4-0.3,3.9,0.3,5.2c0.6,1.5,2.7,2.4,3.6,4.2
		c2.5,4.9,3.5,3.5,4.6,2.7c0.4-0.3,2,2,2.2,1.3c0.1-1.9-2.2-6.1-1.7-7.7c1.1-3.7,5.1-0.9,5.5-1.4c1.6-2.3,6.6-5.3,7.3-9.4
		c0.6-4,2.8-6.5,5-7.2c3-1,4.4,5.9,7.3,5.3c2.3-0.4,2.7-6,5.3-4.8c1.4,0.6-0.1,2.9,0.9,5.3c0.9,2.1,4.4,4.3,6,5.7
		c1.7,1.3,14.5,6.6,16.8,8c0.7,0.4,1.1-0.2,1.4-1.1c0.3-0.9,0.6-2.4-0.9-3.1c-3-1.4-2.7-4-4.2-6.2c-0.8-1.2-1-5.1-1.9-6.7
		c-1.1-1.9-1.9-3.4-2.3-5.2c-0.4-1.7,0.4-3.6,0.3-5.6c-0.1-4.9,10.7-6.8,12-6c2.2,1.5,9.5-1.7,12.1-1.1c7,1.5,14.4,3.7,18.6-0.4
		c2.1-2.2,1.1-8.1,1-14.6c0-2.2,1.4-4.5,1.3-6.6c-0.1-1.7,1.9-1.6,1.7-3.2c-0.3-2.2-3.1-4.5-3.7-6.6c-1.7-6.6-2.3-10.8-1.5-11.2
		c1.3-0.6,3.1-2.8,3.9-3.7c1.4-1.8,1.4-4.1,1.9-5.9c0.6-2.4,1.7-4.2,1.6-5.1c-0.1-1.2-3.2-9-5-4.2
		C546.4,116.6,543.6,114,544.2,113.5z M386.7,114.8c-0.9,0-3.3,0-4.2,0c-0.4,0-1.9,1.9-2.8,1.9c-0.9,0,0,2.8,0,2.8l1.4,1.4h-1.4
		c-1.4,0-0.5,4.2-0.5,4.2s-0.9,4.2,0,4.2c0.5,0,0.5,1.4,0,1.4c-0.9,0-1.9,0.9-2.4,0.9c-0.9,0-0.9,0.4-0.9,1.4c0,0.4,4.2,0.4,4.8,0.4
		c0.9,0,3.7-0.4,3.7-0.4c1.4,0,3.3,0.4,3.3-1.4l1.4-2.8c0.5-0.5,0.9-1.4,2.4-1.4c0.4,0,3.3,0,3.3,0.4c0.4,1,3.7,2.4,5.7,2.4
		c0.4,0,2.4,0,2.8,0c1.4,0,1.9-2.8,1.9-4.2c0-0.9,0.5-0.9,1.4-1.4c0.5,0,0.5-7.6,0.5-8.9c0-1.4-5.7-3.3-7.6-3.3c-1,0,0,3.7-0.5,4.2
		l-3.8-0.5c-0.4-0.4-0.4-1.9-1.9-1.9c-0.4,0-4.2,0-4.2,0.5c-0.4,0.9-0.9,1.4-1.9,1.4C386.7,116.2,386.7,114.8,386.7,114.8z
		 M380.6,163.5c-1.4,0-6-0.7-5.1,2.2c0.1,0.6,1.4,1-0.6,1c-0.6,0-1.5,0-2.1,0c-0.6,0-0.5,1.4-0.5,1.8c0,0.5,2.7,1.4,1.7,2.4
		c-0.1,0.1-0.1,1.1-0.7,1.1c-0.9,0-2.4,2.5-2.4,3.5c0,0.1,3.3,0.1,3.7,0.1c1.4,0,1.8-0.6,2.1-1.4c0.1-0.3,1.8-1.2,2.1-0.8
		c0.5,0.8,1.5,1.2,1.5-0.1c0-1.2,1.1-3,2.3-3c0.7,0-1.2-1.7-1.2-1.9c-0.4-1,1.4-1.7,1.4-2.7C382.8,164.6,380.2,164.6,380.6,163.5z
		 M391.1,152.8c0.9,0,7.6-0.1,6.1-3.3c-0.9-1.9-4.2-1.9-6.1-1.9c-1.4,0-1.4,0-1.4,1.4c0,0.5,0,2.4-0.4,2.4c-1.4,0-4.8-0.5-4.8,0.9
		c0,0.5,0,2.4,0,2.9c0,0.4-0.4,1.9-0.4,1.9c0,0.4-0.5,3.7,0.9,3.7c0.9,0,2.4,2.4,2.4,3.3c0,0.5,0,1.9,0.9,1.9c0.9,0,0,3.7,0,3.7
		h-0.9c0,0-1.4,2.9-1.4,3.8c0,0.4,0,3.3-0.5,3.3c-1.4,0-1.9,0.4-1.9,1.9c0,1.4,6.1,0.4,6.1,0.4c1.4,0,1.4-0.4,2.9-0.4
		c0.4,0,1.9-0.5,1.9-0.9c0.5-0.9,0.9-0.5,0.9-1.9c0-0.9,4.2,0,4.2-0.9c0-1.4,0-3.7,0.5-5.2c0.9-2.4,1.9-0.4,2.8-1.4
		c2.4-2.3-2.8-4.2-2.8-3.3c0,2.4-3.3,0-3.8-0.4c-0.9-0.9-0.9-1.9-0.9-3.3c0-0.9-0.9-0.9-1.9-0.9c-1.4,0-0.5-2.9-0.9-3.8
		C392.1,155.6,391.1,154.1,391.1,152.8z"/>
	<g>
		<path class="st1" d="M476.4,113.1c-1,3.5-2.4,7.1-2.4,11.1c0,1.5,1.4,0.5,1.4,2.5c0,1.5-1.4,2.5-1.4,2.5s0,1.9-0.5,2.4
			c-1.5,1.5-1.5,3.5-3,5c-1,1-1,3.5-2,4s-1,0-1,1.5c0,0,2.5,2.5,0,2.5h-2v2.5"/>
		<path class="st1" d="M426.7,197c0.6-0.7-0.3-2.1,0.1-3.1c0.3-0.7,2-1,1.8-1.8c-0.2-0.8,0.1-1.6-0.3-2.4c-0.9-1.7-2.3-3-0.7-3.8
			c1.3-0.6-0.4-2.4-0.3-2.8c0.2-0.8,0.6,0.1,1-1.8c0.1-0.3,1.4-0.4,3.2,0.4c1.1,0.5,2.2,1.9,3.6,2.4c0.6,0.2,1.9-0.4,3.1-0.4
			c1.8,0.2,3.5,1.2,3.5,1.2c1-1-1.5-3.5,1.5-3.5c0.4,0,0.8,0.8,1.3,0.7c1,0,2.2-0.8,2.2,0.3c0,1,3.2-0.4,3.6,0.2
			c0.4,0.6-1.4,2.7-0.8,3.1c0.5,0.4,0.4,1.7,0.7,1.7c1.6,0-3.3,1.1,6.3,1.1c5.4,0,8.5-0.1,8.5-1.4c0-5.3,1.9-3.3,2-4.5
			c0.3-2.2,5.9-5,7.8-3.2c0.2,0.2,1.6,1.3,1.9,2.4c0.4,1.5-0.4,3.1-0.4,3.1c3,0,0.5,4.5-0.5,5"/>
		<path class="st1" d="M453.3,164.9c1.1,0,2.6-0.7,4-0.6c1.1,0.1,2.2,1.1,3,1.1c2.5,0,0,3.5,0.5,4c0,0,1.5,0,2,0c1.5,0,2.5,1,4,1
			c1.5,0,0,1.5,0,2.5c0,3.5,4,1,3,3c-0.5,1.5,0.5,1,1,1.5c0.5,0.5-0.8,1.1,0.7,1.6"/>
		<path class="st1" d="M415.2,175.4c0.5,0,2,1,2.5,1l0.5,0.5v0.5v0.5v0.5v0.5l1-0.4l-0.5,0.9h0.5h0.5h0.5c0.6,0,0.6,0.6,0.9,0
			c0.3-0.4,1.5,0,1.5,0.5v1.5l2,0.8l1-0.8h0.5h0.5l-0.5,0.5c0,1,0,1,1,1"/>
	</g>
	<path class="st7" d="M454.4,214.6l1.8,11.2"/>
</g>
<g id="Outline">
	<g transform="matrix(0.94345 -0.331515 0.331515 0.94345 -6290.5 50.8959)">
		<text transform="matrix(1 0 0 1 5944.0825 2188.345)" class="st9 st10 st11">Alaska</text>
	</g>
	<g transform="matrix(0.999803 0.0198497 -0.0198497 0.999803 -4587.25 -2457.09)">
		<text transform="matrix(1 0 0 1 4722.3462 2492.8713)" class="st9 st10 st11">North West Territory</text>
	</g>
	<text transform="matrix(1 0 0 1 121.4346 163.7222)" class="st9 st10 st11">Alberta</text>
	<g transform="matrix(0.823592 0.567183 -0.567183 0.823592 -549.558 -3270.8)">
		<text transform="matrix(1 0 0 1 2562.5366 2508.2095)" class="st9 st10 st11">Central America</text>
	</g>
	<text transform="matrix(1 0 0 1 187.0962 208.6489)" class="st9 st10 st12">  Eastern </text>
	<text transform="matrix(1 0 0 1 187.0962 218.5845)" class="st9 st10 st12">  United </text>
	<text transform="matrix(1 0 0 1 187.0962 228.52)" class="st9 st10 st12">States</text>
	<text transform="matrix(1 0 0 1 140.5142 199.6489)" class="st9 st10 st11">Western </text>
	<text transform="matrix(1 0 0 1 145.4097 210.0889)" class="st9 st10 st11">United </text>
	<text transform="matrix(1 0 0 1 145.2656 220.6006)" class="st9 st10 st11">States</text>
	<text transform="matrix(1 0 0 1 173.7769 172.29)" class="st9 st10 st11">Ontario</text>
	<text transform="matrix(1 0 0 1 235.9106 174.3779)" class="st9 st10 st11">Quebec</text>
	<text transform="matrix(1 0 0 1 280.6211 86.1812)" class="st9 st10 st11">Greenland</text>
	<g transform="matrix(0.907381 -0.42031 0.42031 0.907381 -3531.78 2827.8)">
		<text transform="matrix(1 0 0 1 4472.2993 -705.9294)" class="st9 st10 st13">Venezuela</text>
	</g>
	<text transform="matrix(1 0 0 1 283.0693 330.9727)" class="st9 st10 st11">Brazil</text>
	<g transform="matrix(0.447078 -0.894495 0.894495 0.447078 -2696.59 9034.72)">
		<text transform="matrix(1 0 0 1 9011 -1212.3079)" class="st9 st10 st11">Argentina</text>
	</g>
	<g transform="matrix(0.784087 0.620651 -0.620651 0.784087 1486.6 -2087.23)">
		<text transform="matrix(1 0 0 1 527.9412 2672.5806)" class="st9 st10 st11">Peru</text>
	</g>
	<text transform="matrix(1 0 0 1 440.8877 241.6235)" class="st9 st10 st11">Egypt</text>
	<text transform="matrix(1 0 0 1 377.2422 265.959)" class="st9 st10 st11">North Africa</text>
	<g transform="matrix(0.948634 0.316377 -0.316377 0.948634 2542.26 -1915.35)">
		<text transform="matrix(1 0 0 1 -1267.9988 2730.1736)" class="st9 st10 st11">East </text>
		<text transform="matrix(1 0 0 1 -1272.3191 2740.614)" class="st9 st10 st11">Africa</text>
	</g>
	<text transform="matrix(1 0 0 1 432.5361 304.4775)" class="st9 st10 st11">Congo</text>
	<g transform="matrix(0.467584 -0.883949 0.883949 0.467584 908.877 8086.63)">
		<text transform="matrix(1 0 0 1 6626.0713 -3956.8193)" class="st9 st10 st11">Madagascar</text>
	</g>
	<text transform="matrix(1 0 0 1 438.0801 349.98)" class="st9 st10 st11">South </text>
	<text transform="matrix(1 0 0 1 438.0801 360.4194)" class="st9 st10 st11">Africa</text>
	<text transform="matrix(1 0 0 1 371.8418 124.8438)" class="st9 st10 st11">Iceland</text>
	<text transform="matrix(1 0 0 1 370.042 161.4902)" class="st9 st10 st11">Great</text>
	<text transform="matrix(1 0 0 1 367.0186 172.002)" class="st9 st10 st11">Britain</text>
	<text transform="matrix(1 0 0 1 378.25 193.3853)" class="st9 st10 st11">Western</text>
	<text transform="matrix(1 0 0 1 381.6338 203.8247)" class="st9 st10 st11">Europe</text>
	<g transform="matrix(0.978986 0.20393 -0.20393 0.978986 1348.52 -2548.91)">
		<text transform="matrix(1 0 0 1 -341.3238 2868.5183)" class="st9 st10 st13">Ukraine</text>
	</g>
	<g transform="matrix(0.99518 0.098063 -0.098063 0.99518 759.36 -2285.12)">
		<text transform="matrix(1 0 0 1 -92.9154 2477.1135)" class="st9 st10 st14">Northern</text>
		<text transform="matrix(1 0 0 1 -87.5872 2484.9617)" class="st9 st10 st14">Europe</text>
	</g>
	<text transform="matrix(1 0 0 1 481.5664 156.3784)" class="st9 st10 st11">Ukraine</text>
	<g transform="matrix(0.81693 -0.576736 0.576736 0.81693 -958.521 1820.12)">
		<text transform="matrix(1 0 0 1 2091.7329 -569.1806)" class="st9 st10 st13">Scandinavia</text>
	</g>
	<text transform="matrix(1 0 0 1 670.9199 378.4189)" class="st9 st10 st15">Western </text>
	<text transform="matrix(1 0 0 1 668.1123 386.771)" class="st9 st10 st15">Australia</text>
	<g transform="matrix(0.700976 0.713185 -0.713185 0.700976 9200.44 -1913.79)">
		<text transform="matrix(1 0 0 1 -4315.9097 7631.7344)" class="st9 st10 st15">Eastern</text>
		<text transform="matrix(1 0 0 1 -4319.1499 7640.0859)" class="st9 st10 st15">Australia</text>
	</g>
	<g transform="matrix(0.863709 0.503991 -0.503991 0.863709 7129.51 -2014.71)">
		<text transform="matrix(1 0 0 1 -4377.0923 5246.959)" class="st9 st10 st15">New Guinea</text>
	</g>
	<text transform="matrix(1 0 0 1 625.9209 337.4526)" class="st9 st10 st11">Indonesia</text>
	<g transform="matrix(0.560788 -0.827959 0.827959 0.560788 3395.43 5710.04)">
		<text transform="matrix(1 0 0 1 3024.9993 -5282.7759)" class="st9 st10 st11">Japan</text>
	</g>
	<text transform="matrix(1 0 0 1 730.5342 126.8594)" class="st9 st10 st11">Kamchatka</text>
	<text transform="matrix(1 0 0 1 669.7676 121.0996)" class="st9 st10 st11">Yakutsk</text>
	<text transform="matrix(1 0 0 1 560.0439 162.2822)" class="st9 st10 st11">Ural</text>
	<text transform="matrix(1 0 0 1 599.8584 123.6914)" class="st9 st10 st11">Siberia</text>
	<text transform="matrix(1 0 0 1 630.6729 164.8022)" class="st9 st10 st11">Irkutsk</text>
	<text transform="matrix(1 0 0 1 623.5459 195.041)" class="st9 st10 st11">Mongolia</text>
	<text transform="matrix(1 0 0 1 562.2754 245.1514)" class="st9 st10 st11">India</text>
	<text transform="matrix(1 0 0 1 605.1143 256.0952)" class="st9 st10 st11">Siam</text>
	<text transform="matrix(1 0 0 1 601.8018 221.3926)" class="st9 st10 st11">China</text>
	<g transform="matrix(0.880727 0.473625 -0.473625 0.880727 4369.72 -3630.77)">
		<text transform="matrix(1 0 0 1 -1585.7212 5185.7036)" class="st9 st10 st13">Afghanistan</text>
	</g>
	<g transform="matrix(0.515688 0.856776 -0.856776 0.515688 7505.4 -3849.03)">
		<text transform="matrix(1 0 0 1 -141.1334 8107.0649)" class="st9 st10 st13">Middle East</text>
	</g>
</g>
</svg>
